<?xml version="1.0" encoding="utf-8"?>
<svg baseProfile="full" height="100%" version="1.1" viewBox="0 0 352 531" width="100%" xmlns="http://www.w3.org/2000/svg" xmlns:ev="http://www.w3.org/2001/xml-events" xmlns:xlink="http://www.w3.org/1999/xlink"><defs/><polygon fill="lightgray" id="1" points="232.454 170.881 174.445 112.872 116.436 170.881 174.445 228.89" stroke="white" strokewidth="1"/>
  <polygon fill="lightgray" id="2" points="174.445 474.999 92.408 392.963 92.408 310.926 174.445 392.963" stroke="white" strokewidth="1"/>
  <polygon fill="lightgray" id="3" points="176.765 121.157 316.81 97.129 238.797 45.185" stroke="white" strokewidth="1" transform="matrix(-0.587785, 0.809017, -0.809017, -0.587785, 459.132263, -67.597633)"/>
  <polygon fill="lightgray" id="4" points="169.184 124.466 37.191 101.613 117.51 47.653" stroke="white" strokewidth="1" style="" transform="matrix(-0.559193, -0.829038, 0.829038, -0.559193, 89.542656, 219.729691)"/>
  <polygon fill="lightgray" id="5" points="92.408 508.98 208.426 508.98 92.408 392.963" stroke="white" strokewidth="1"/>
  <polygon fill="lightgray" id="6" points="338.518 392.963 174.445 392.963 174.445 228.89" stroke="white" strokewidth="1"/>
  <polygon fill="lightgray" id="7" points="174.445 392.963 10.372 228.89 174.445 228.89" stroke="white" strokewidth="1"/>
</svg>