<?xml version="1.0" encoding="utf-8"?>
<svg baseProfile="full" height="100%" version="1.1" viewBox="0 0 310 446" width="100%" xmlns="http://www.w3.org/2000/svg" xmlns:ev="http://www.w3.org/2001/xml-events" xmlns:xlink="http://www.w3.org/1999/xlink"><defs/><polygon fill="lightgray" id="1" points="80.54 296.754 8.367 368.927 80.54 441.1 152.714 368.927" stroke="white" strokewidth="1" transform="matrix(0.999848, -0.017452, 0.017452, 0.999848, -6.426247, 1.461779)"/>
  <polygon fill="lightgray" id="2" points="234.54 149.407 306.714 221.58 162.367 221.58 90.194 149.407" stroke="white" strokewidth="1"/>
  <polygon fill="lightgray" id="3" points="232.597 441.889 304.77 369.716 232.597 297.543" stroke="white" strokewidth="1" transform="matrix(0.999848, 0.017452, -0.017452, 0.999848, 6.493203, -4.632757)"/>
  <polygon fill="lightgray" id="4" points="232.607 440.629 160.434 368.456 232.607 296.283" stroke="white" strokewidth="1" transform="matrix(0.999848, 0.017452, -0.017452, 0.999848, 6.460223, -3.37356)"/>
  <polygon fill="lightgray" id="5" points="1.367 221.58 205.504 221.58 103.436 119.512" stroke="white" strokewidth="1"/>
  <polygon fill="lightgray" id="6" points="12.54 149.407 301.234 149.407 156.887 5.06" stroke="white" strokewidth="1"/>
  <polygon fill="lightgray" id="7" points="156.528 367.445 1.367 221.58 307.177 222.062" stroke="white" strokewidth="1" style=""/>
</svg>